With: Johnny Strong, Kevin Phillips and Costas Mandylor

Detective Sean Riley probeert de dood van zijn zoon te verwerken en zich te focussen op zijn vrouw. Geconfronteerd door het feit dat hij waarschijnlijk geschorst wordt, werkt Detective Riley samen met de homicide detective Will Ganz, om een reeks van brute moorden, die de stad flink beschadigd, op te lossen. Al snel komen ze erachter dat er meer aan de hand is, dan dat ze in eerste instantie hadden gedacht.

In lawless storm ravaged New Orleans, beleaguered Detective Sean Riley is trying to cope with the death of his young son and the abandonment of his wife...

------------------ Dutch Friends ------------------

You can find my Friends at: http://www.Film-Test.nl 
                    
------ They got my dutchs subs ---- and more ------

General:

Complete name                    : Sinners & Saints\Sinners & Saints.avi
Format                           : AVI
Format/Info                      : Audio Video Interleave
File size                        : 1.57 GiB
Duration                         : 1h 39mn
Overall bit rate                 : 2 247 Kbps

Video:

Format                           : MPEG-4 Visual
Format profile                   : Simple@L1
Format settings, BVOP            : No
Format settings, QPel            : No
Format settings, GMC             : No warppoints
Format settings, Matrix          : Default (H.263)
Codec ID                         : DX50
Codec ID/Hint                    : DivX 5
Duration                         : 1h 39mn
Bit rate                         : 1 788 Kbps
Width                            : 720 pixels
Height                           : 304 pixels
Display aspect ratio             : 2.35:1
Frame rate                       : 25.000 fps
Color space                      : YUV
Chroma subsampling               : 4:2:0
Bit depth                        : 8 bits
Scan type                        : Progressive
Bits/(Pixel*Frame)               : 0.327
Stream size                      : 1.25 GiB (80%)
Writing library                  : Lavc52.0.0

Audio:

Format                           : AC-3
Format/Info                      : Audio Coding 3
Mode extension                   : CM (complete main)
Codec ID                         : 2000
Duration                         : 1h 39mn
Bit rate mode                    : Constant
Bit rate                         : 448 Kbps
Channel(s)                       : 6 channels
Channel positions                : Front: L C R, Side: L R, LFE
Sampling rate                    : 48.0 KHz
Bit depth                        : 16 bits
Stream size                      : 320 MiB (20%)
Alignment                        : Aligned on interleaves
Interleave, duration             : 32 ms (0.80 video frame)
Interleave, preload duration     : 736 ms
